<?xml version="1.0" standalone="no"?>
<!DOCTYPE svg PUBLIC "-//W3C//DTD SVG 20010904//EN"
 "http://www.w3.org/TR/2001/REC-SVG-20010904/DTD/svg10.dtd">
<svg version="1.0" xmlns="http://www.w3.org/2000/svg"
 width="100.000000pt" height="100.000000pt" viewBox="0 0 100.000000 100.000000"
 preserveAspectRatio="xMidYMid meet">
<metadata>
Created by potrace 1.11, written by Peter Selinger 2001-2013
</metadata>
<g transform="translate(0.000000,100.000000) scale(0.100000,-0.100000)"
fill="#000000" stroke="none">
<path d="M290 945 c0 -10 10 -15 30 -15 43 0 70 -34 70 -87 0 -29 -4 -43 -13
-43 -23 0 -74 -53 -86 -90 -22 -70 5 -149 69 -199 l30 -23 0 -139 c0 -112 -3
-137 -13 -133 -29 11 -65 99 -75 182 -1 6 -6 12 -10 12 -5 0 -10 -54 -11 -120
-1 -77 2 -120 9 -120 5 0 10 6 10 14 0 25 19 29 56 11 29 -13 34 -21 34 -49 0
-42 -26 -74 -64 -80 -33 -6 -40 -11 -33 -23 9 -15 400 -10 405 5 4 12 3 13
-36 17 -35 4 -54 28 -59 76 -3 41 -1 46 29 64 46 28 70 75 70 135 -1 57 -10
78 -63 135 l-40 43 3 113 3 114 19 -40 c18 -39 24 -57 25 -82 1 -7 5 -13 10
-13 5 0 11 45 13 100 2 70 0 100 -8 100 -7 0 -14 -9 -17 -21 -5 -18 -8 -19
-27 -9 -20 11 -22 18 -18 66 5 63 5 62 54 79 83 28 52 35 -160 35 -176 0 -206
-2 -206 -15z"/>
</g>
</svg>
