<?xml version="1.0" standalone="no"?>
<!DOCTYPE svg PUBLIC "-//W3C//DTD SVG 20010904//EN"
 "http://www.w3.org/TR/2001/REC-SVG-20010904/DTD/svg10.dtd">
<svg version="1.0" xmlns="http://www.w3.org/2000/svg"
 width="100.000000pt" height="100.000000pt" viewBox="0 0 100.000000 100.000000"
 preserveAspectRatio="xMidYMid meet">
<metadata>
Created by potrace 1.11, written by Peter Selinger 2001-2013
</metadata>
<g transform="translate(0.000000,100.000000) scale(0.100000,-0.100000)"
fill="#000000" stroke="none">
<path d="M290 945 c0 -10 10 -15 28 -15 16 0 38 -9 50 -20 22 -21 22 -22 22
-409 0 -449 4 -432 -93 -440 -5 -1 -7 -7 -5 -13 6 -18 408 -19 408 -2 0 7 -17
16 -37 21 -25 6 -42 17 -50 33 -15 30 -19 754 -4 793 7 17 21 27 47 34 21 4
39 14 42 21 3 9 -44 12 -202 12 -176 0 -206 -2 -206 -15z"/>
</g>
</svg>
